<svg clip-rule="evenodd" fill-rule="evenodd" stroke-linecap="round" stroke-linejoin="round" stroke-miterlimit="1.5" viewBox="0 0 3600 3600" xmlns="http://www.w3.org/2000/svg"><path d="m-67.57-14.167h4014.93v3640.44h-4014.93z"/><g fill="#fff"><path d="m1901.15 687.436c580.85 0 1052.44 471.584 1052.44 1052.434 0 580.86-471.59 1052.44-1052.44 1052.44-580.86 0-1052.438-471.58-1052.438-1052.44 0-580.85 471.578-1052.434 1052.438-1052.434zm0 19.252c570.23 0 1033.18 462.952 1033.18 1033.182s-462.95 1033.19-1033.18 1033.19-1033.186-462.96-1033.186-1033.19 462.956-1033.182 1033.186-1033.182z" transform="matrix(.855159 0 0 .855159 174.216 312.133)"/><path d="m1793.97463 929.9996h12.059v130.507h-12.059z"/><path d="m1798.24 969.645h12.059v130.507h-12.059z" transform="matrix(-1 0 0 -1 3604.27 3639.65)"/><path d="m1798.24 969.645h12.059v130.507h-12.059z" transform="matrix(0 -1 1 0 -39.6454 3604.27)"/><path d="m1798.24 969.645h12.059v130.507h-12.059z" stroke="#000" stroke-width="1.16" transform="matrix(.866025 -.5 .34481 .597229 -531.883 1369.59)"/><path d="m1798.24 969.645h12.059v130.507h-12.059z" stroke="#000" stroke-width="1.16" transform="matrix(.5 -.866025 .597229 .34481 -434.675 2593.2)"/><path d="m1798.24 969.645h12.059v130.507h-12.059z" stroke="#000" stroke-width="2.09" transform="matrix(-.292455 .40253 -.371943 -.270233 2033.02 859.652)"/><path d="m1798.24 969.645h12.059v130.507h-12.059z" stroke="#000" stroke-width="2.09" transform="matrix(-.332929 .369755 -.341659 -.307631 2130.03 889.16)"/><path d="m1798.24 969.645h12.059v130.507h-12.059z" stroke="#000" stroke-width="2.09" transform="matrix(-.369755 .332929 -.307631 -.341659 2223.43 928.648)"/><path d="m1798.24 969.645h12.059v130.507h-12.059z" stroke="#000" stroke-width="2.09" transform="matrix(-.40253 .292455 -.270233 -.371943 2312.2 978.682)"/><path d="m1798.24 969.645h12.059v130.507h-12.059z" stroke="#000" stroke-width="2.09" transform="matrix(-.454539 .202374 -.186996 -.42 2471.97 1103.14)"/><path d="m1798.24 969.645h12.059v130.507h-12.059z" stroke="#000" stroke-width="2.09" transform="matrix(-.473203 .153753 -.14207 -.437245 2541.24 1177.21)"/><path d="m1798.24 969.645h12.059v130.507h-12.059z" stroke="#000" stroke-width="2.09" transform="matrix(-.494829 .0520086 -.0480567 -.457228 2654.73 1344.95)"/><path d="m1798.24 969.645h12.059v130.507h-12.059z" stroke="#000" stroke-width="2.09" transform="matrix(-.486682 .103447 -.0955868 -.4497 2602.38 1258.1)"/><path d="m1798.24 969.645h12.059v130.507h-12.059z" stroke="#000" stroke-width="2.09" transform="matrix(-.202374 .454539 -.42 -.186996 1832.42 832.754)"/><path d="m1798.24 969.645h12.059v130.507h-12.059z" stroke="#000" stroke-width="2.09" transform="matrix(-.153753 .473203 -.437245 -.14207 1731.03 834.67)"/><path d="m1798.24 969.645h12.059v130.507h-12.059z" stroke="#000" stroke-width="2.09" transform="matrix(-.103447 .486682 -.4497 -.0955868 1630.4 847.173)"/><path d="m1798.24 969.645h12.059v130.507h-12.059z" stroke="#000" stroke-width="2.09" transform="matrix(-.0520086 .494829 -.457228 -.0480567 1531.62 870.127)"/><path d="m1798.24 969.645h12.059v130.507h-12.059z" stroke="#000" stroke-width="1.16" transform="matrix(-.5 -.866025 .597229 -.34481 1368.59 4130.77)"/><path d="m1798.24 969.645h12.059v130.507h-12.059z" stroke="#000" stroke-width="1.16" transform="matrix(-.866025 -.5 .34481 -.597229 2592.2 4033.56)"/><path d="m1798.24 969.645h12.059v130.507h-12.059z" stroke="#000" stroke-width="2.09" transform="matrix(.40253 .292455 -.270233 .371943 858.652 1565.87)"/><path d="m1798.24 969.645h12.059v130.507h-12.059z" stroke="#000" stroke-width="2.09" transform="matrix(.369755 .332929 -.307631 .341659 888.16 1468.85)"/><path d="m1798.24 969.645h12.059v130.507h-12.059z" stroke="#000" stroke-width="2.09" transform="matrix(.332929 .369755 -.341659 .307631 927.648 1375.45)"/><path d="m1798.24 969.645h12.059v130.507h-12.059z" stroke="#000" stroke-width="2.09" transform="matrix(.292455 .40253 -.371943 .270233 977.682 1286.69)"/><path d="m1798.24 969.645h12.059v130.507h-12.059z" stroke="#000" stroke-width="2.09" transform="matrix(.202374 .454539 -.42 .186996 1102.14 1126.91)"/><path d="m1798.24 969.645h12.059v130.507h-12.059z" stroke="#000" stroke-width="2.09" transform="matrix(.153753 .473203 -.437245 .14207 1176.21 1057.65)"/><path d="m1798.24 969.645h12.059v130.507h-12.059z" stroke="#000" stroke-width="2.09" transform="matrix(.0520086 .494829 -.457228 .0480567 1343.95 944.151)"/><path d="m1798.24 969.645h12.059v130.507h-12.059z" stroke="#000" stroke-width="2.09" transform="matrix(.103447 .486682 -.4497 .0955868 1257.1 996.503)"/><path d="m1798.24 969.645h12.059v130.507h-12.059z" stroke="#000" stroke-width="2.09" transform="matrix(.454539 .202374 -.186996 .42 831.754 1766.47)"/><path d="m1798.24 969.645h12.059v130.507h-12.059z" stroke="#000" stroke-width="2.09" transform="matrix(.473203 .153753 -.14207 .437245 833.67 1867.86)"/><path d="m1798.24 969.645h12.059v130.507h-12.059z" stroke="#000" stroke-width="2.09" transform="matrix(.486682 .103447 -.0955868 .4497 846.173 1968.49)"/><path d="m1798.24 969.645h12.059v130.507h-12.059z" stroke="#000" stroke-width="2.09" transform="matrix(.494829 .0520086 -.0480567 .457228 869.127 2067.26)"/><path d="m1798.24 969.645h12.059v130.507h-12.059z" stroke="#000" stroke-width="1.16" transform="matrix(-.866025 .5 -.34481 -.597229 4131.97 2230.29)"/><path d="m1798.24 969.645h12.059v130.507h-12.059z" stroke="#000" stroke-width="1.16" transform="matrix(-.5 .866025 -.597229 -.34481 4034.76 1006.69)"/><path d="m1798.24 969.645h12.059v130.507h-12.059z" stroke="#000" stroke-width="2.09" transform="matrix(.292455 -.40253 .371943 .270233 1567.07 2740.23)"/><path d="m1798.24 969.645h12.059v130.507h-12.059z" stroke="#000" stroke-width="2.09" transform="matrix(.332929 -.369755 .341659 .307631 1470.05 2710.72)"/><path d="m1798.24 969.645h12.059v130.507h-12.059z" stroke="#000" stroke-width="2.09" transform="matrix(.369755 -.332929 .307631 .341659 1376.65 2671.24)"/><path d="m1798.24 969.645h12.059v130.507h-12.059z" stroke="#000" stroke-width="2.09" transform="matrix(.40253 -.292455 .270233 .371943 1287.89 2621.2)"/><path d="m1798.24 969.645h12.059v130.507h-12.059z" stroke="#000" stroke-width="2.09" transform="matrix(.454539 -.202374 .186996 .42 1128.11 2496.74)"/><path d="m1798.24 969.645h12.059v130.507h-12.059z" stroke="#000" stroke-width="2.09" transform="matrix(.473203 -.153753 .14207 .437245 1058.85 2422.68)"/><path d="m1798.24 969.645h12.059v130.507h-12.059z" stroke="#000" stroke-width="2.09" transform="matrix(.494829 -.0520086 .0480567 .457228 945.351 2254.93)"/><path d="m1798.24 969.645h12.059v130.507h-12.059z" stroke="#000" stroke-width="2.09" transform="matrix(.486682 -.103447 .0955868 .4497 997.703 2341.78)"/><path d="m1798.24 969.645h12.059v130.507h-12.059z" stroke="#000" stroke-width="2.09" transform="matrix(.202374 -.454539 .42 .186996 1767.67 2767.13)"/><path d="m1798.24 969.645h12.059v130.507h-12.059z" stroke="#000" stroke-width="2.09" transform="matrix(.153753 -.473203 .437245 .14207 1869.06 2765.21)"/><path d="m1798.24 969.645h12.059v130.507h-12.059z" stroke="#000" stroke-width="2.09" transform="matrix(.103447 -.486682 .4497 .0955868 1969.69 2752.71)"/><path d="m1798.24 969.645h12.059v130.507h-12.059z" stroke="#000" stroke-width="2.09" transform="matrix(.0520086 -.494829 .457228 .0480567 2068.46 2729.76)"/><path d="m1798.24 969.645h12.059v130.507h-12.059z" stroke="#000" stroke-width="1.16" transform="matrix(.5 .866025 -.597229 .34481 2231.49 -530.767)"/><path d="m1798.24 969.645h12.059v130.507h-12.059z" stroke="#000" stroke-width="1.16" transform="matrix(.866025 .5 -.34481 .597229 1007.89 -433.559)"/><path d="m1798.24 969.645h12.059v130.507h-12.059z" stroke="#000" stroke-width="2.09" transform="matrix(-.40253 -.292455 .270233 -.371943 2741.43 2034.13)"/><path d="m1798.24 969.645h12.059v130.507h-12.059z" stroke="#000" stroke-width="2.09" transform="matrix(-.369755 -.332929 .307631 -.341659 2711.92 2131.15)"/><path d="m1798.24 969.645h12.059v130.507h-12.059z" stroke="#000" stroke-width="2.09" transform="matrix(-.332929 -.369755 .341659 -.307631 2672.44 2224.55)"/><path d="m1798.24 969.645h12.059v130.507h-12.059z" stroke="#000" stroke-width="2.09" transform="matrix(-.292455 -.40253 .371943 -.270233 2622.4 2313.31)"/><path d="m1798.24 969.645h12.059v130.507h-12.059z" stroke="#000" stroke-width="2.09" transform="matrix(-.202374 -.454539 .42 -.186996 2497.94 2473.09)"/><path d="m1798.24 969.645h12.059v130.507h-12.059z" stroke="#000" stroke-width="2.09" transform="matrix(-.153753 -.473203 .437245 -.14207 2423.88 2542.35)"/><path d="m1798.24 969.645h12.059v130.507h-12.059z" stroke="#000" stroke-width="2.09" transform="matrix(-.0520086 -.494829 .457228 -.0480567 2256.13 2655.85)"/><path d="m1798.24 969.645h12.059v130.507h-12.059z" stroke="#000" stroke-width="2.09" transform="matrix(-.103447 -.486682 .4497 -.0955868 2342.98 2603.5)"/><path d="m1798.24 969.645h12.059v130.507h-12.059z" stroke="#000" stroke-width="2.09" transform="matrix(-.454539 -.202374 .186996 -.42 2768.33 1833.53)"/><path d="m1798.24 969.645h12.059v130.507h-12.059z" stroke="#000" stroke-width="2.09" transform="matrix(-.473203 -.153753 .14207 -.437245 2766.41 1732.14)"/><path d="m1798.24 969.645h12.059v130.507h-12.059z" stroke="#000" stroke-width="2.09" transform="matrix(-.486682 -.103447 .0955868 -.4497 2753.91 1631.51)"/><path d="m1798.24 969.645h12.059v130.507h-12.059z" stroke="#000" stroke-width="2.09" transform="matrix(-.494829 -.0520086 .0480567 -.457228 2730.96 1532.74)"/><path d="m1798.24 969.645h12.059v130.507h-12.059z" transform="matrix(0 1 -1 0 3639.65 -4.26537)"/><path d="m1810.3 971.47c0-1.008-2.72-1.825-6.07-1.825h-.01c-1.58 0-3.11.19-4.23.528-1.12.337-1.75.795-1.75 1.272v126.905c0 .48.63.94 1.75 1.27 1.13.34 2.66.53 4.25.53 1.61 0 3.15-.19 4.28-.53 1.14-.34 1.78-.8 1.78-1.29 0-14.58 0-112.258 0-126.86z" transform="matrix(-1.18301 .384382 -1.27863 -3.93521 5177.27 4930.23)"/><path d="m1810.3 970.548c0-.498-2.74-.903-6.12-.903h-.01c-1.57 0-3.08.093-4.19.257-1.12.164-1.74.387-1.74.62v128.748c0 .49 2.67.88 5.97.88 1.62 0 3.16-.09 4.3-.26s1.79-.4 1.79-.64c0-10.9 0-117.762 0-128.702z" fill-opacity=".83" transform="matrix(-.681808 -.303561 2.05696 -4.62 1035.65 6832.46)"/><path d="m1810.3 970.548c0-.498-2.74-.903-6.12-.903h-.01c-1.57 0-3.08.093-4.19.257-1.12.164-1.74.387-1.74.62v128.748c0 .49 2.67.88 5.97.88 1.62 0 3.16-.09 4.3-.26s1.79-.4 1.79-.64c0-10.9 0-117.762 0-128.702z" fill-opacity=".58" transform="matrix(-.709804 -.230629 1.56277 -4.8097 1565.35 6884.82)"/><path d="m1810.3 970.548c0-.498-2.74-.903-6.12-.903h-.01c-1.57 0-3.08.093-4.19.257-1.12.164-1.74.387-1.74.62v128.748c0 .49 2.67.88 5.97.88 1.62 0 3.16-.09 4.3-.26s1.79-.4 1.79-.64c0-10.9 0-117.762 0-128.702z" fill-opacity=".31" transform="matrix(-.730023 -.155171 1.05145 -4.9467 2097.62 6881.52)"/><path d="m1810.3 970.548c0-.498-2.74-.903-6.12-.903h-.01c-1.57 0-3.08.093-4.19.257-1.12.164-1.74.387-1.74.62v128.748c0 .49 2.67.88 5.97.88 1.62 0 3.16-.09 4.3-.26s1.79-.4 1.79-.64c0-10.9 0-117.762 0-128.702z" fill-opacity=".18" transform="matrix(-.742244 -.078013 .528623 -5.02951 2626.63 6822.6)"/><path d="m1810.3 970.548c0-.498-2.74-.903-6.12-.903h-.01c-1.57 0-3.08.093-4.19.257-1.12.164-1.74.387-1.74.62v128.748c0 .49 2.67.88 5.97.88 1.62 0 3.16-.09 4.3-.26s1.79-.4 1.79-.64c0-10.9 0-117.762 0-128.702z" fill-opacity=".05" transform="matrix(-.746332 0 0 -5.05722 3146.58 6708.71)"/><path d="m1810.3 973.568c0-2.166-2.71-3.923-6.05-3.923-1.59 0-3.12.412-4.25 1.145-1.13.732-1.76 1.726-1.76 2.762v122.708c0 2.15 2.68 3.89 5.98 3.89h.05c1.6 0 3.13-.41 4.26-1.14 1.13-.74 1.77-1.73 1.77-2.77 0-19.21 0-103.433 0-122.672z" transform="matrix(-1.49215 .0390734 -.0601739 -2.29795 4550.59 3966.7)"/></g></svg>