<svg clip-rule="evenodd" fill-rule="evenodd" stroke-linecap="round" stroke-linejoin="round" viewBox="0 0 300 300" xmlns="http://www.w3.org/2000/svg" xmlns:xlink="http://www.w3.org/1999/xlink"><linearGradient id="a" gradientUnits="userSpaceOnUse" x1="127.1771" x2="156.5071" y1="157.844" y2="157.844"><stop offset="0" stop-color="#68b743"/><stop offset="1" stop-color="#4c8a2e"/></linearGradient><g stroke-linecap="butt" stroke-linejoin="round"><g stroke-width="3"><path d="m127.177 147.723h29.33v20.242h-29.33z" fill="url(#a)" stroke="#000"/><path d="m60.8541 78.869c5.5229 0 10 3.8734 10 8.6515v17.6975c0 4.778-4.4771 8.651-10 8.651-5.5228 0-10-3.873-10-8.651v-17.6975c0-4.7781 4.4772-8.6515 10-8.6515z" fill="#72b46a" stroke="#000"/><path d="m230.854 78.869c5.523 0 10 3.8734 10 8.6515v17.6975c0 4.778-4.477 8.651-10 8.651-5.523 0-10-3.873-10-8.651v-17.6975c0-4.7781 4.477-8.6515 10-8.6515z" fill="#72b46a" stroke="#000"/><path d="m105.078 35.7359c6.248 0 11.313 5.0649 11.313 11.3129 0 6.2479-5.065 11.3129-11.313 11.3129-6.248 0-11.313-5.065-11.313-11.3129 0-6.248 5.065-11.3129 11.313-11.3129z" fill="#88d77e" stroke="#2d2d2d"/><path d="m185.672 35.3504c6.248 0 11.313 5.065 11.313 11.3129 0 6.248-5.065 11.313-11.313 11.313-6.248 0-11.313-5.065-11.313-11.313 0-6.2479 5.065-11.3129 11.313-11.3129z" fill="#88d77e" stroke="#2d2d2d"/><path d="m78.3289 47.869h135.0501c9.651 0 17.475 7.1134 17.475 15.8883v68.2237c0 8.775-7.824 15.888-17.475 15.888h-135.0501c-9.6511 0-17.4748-7.113-17.4748-15.888v-68.2237c0-8.7749 7.8237-15.8883 17.4748-15.8883z" fill="#fffea9" stroke="#000"/></g><path d="m95.5032 57.869c8.1678 0 14.7888 6.6213 14.7888 14.7891v15.9453c0 8.1678-6.621 14.7896-14.7888 14.7896-8.1678 0-14.7891-6.6218-14.7891-14.7896v-15.9453c0-8.1678 6.6213-14.7891 14.7891-14.7891z" fill="#262626" stroke="#313131"/><path d="m98.3536 64.3262c4.1034 0 7.4304 3.3265 7.4304 7.43 0 4.1036-3.327 7.4301-7.4304 7.4301-4.1035 0-7.4301-3.3265-7.4301-7.4301 0-4.1035 3.3266-7.43 7.4301-7.43z" fill="#fff" stroke="#fff"/><path d="m194.721 57.869c8.168 0 14.789 6.6213 14.789 14.7891v15.9453c0 8.1678-6.621 14.7896-14.789 14.7896-8.167 0-14.789-6.6218-14.789-14.7896v-15.9453c0-8.1678 6.622-14.7891 14.789-14.7891z" fill="#262626" stroke="#313131"/><path d="m197.572 64.3262c4.103 0 7.43 3.3265 7.43 7.43 0 4.1036-3.327 7.4301-7.43 7.4301-4.104 0-7.43-3.3265-7.43-7.4301 0-4.1035 3.326-7.43 7.43-7.43z" fill="#fff" stroke="#fff"/><path d="m157.429 113.47c-.005-1.454 3.922-.541 3.923.223.025 20.442-36.787 23.301-37.81-1.423-.011-.271 3.967-.517 3.906.165-1.756 19.504 30.044 19.014 29.981 1.035z" fill="#282828" stroke="#292929"/><path d="m50.8151 158.439h190.0779c11.024 0 19.961 9.009 19.961 20.121v84.758c0 11.112-8.937 20.121-19.961 20.121h-190.0779c-11.0241 0-19.961-9.009-19.961-20.121v-84.758c0-11.112 8.9369-20.121 19.961-20.121z" fill="#88d77e" stroke="#000" stroke-width="3"/><g stroke="#000"><path d="m46.8801 240.134c1.2724.147.475 3.898-.1961 3.922-8.4626.305-38.71846-1.646-40.604-10.802-1.23166-5.982-.89342-6.962.27156-10.454 3.84204-11.519 19.49694-9.145 23.28174-9.276.2378-.008.9194 3.561.3176 3.548-8.8169-.195-16.4419.493-19.2712 4.539-2.46658 3.528-3.13785 7.078-.94568 10.487 5.48108 8.525 25.15078 6.651 37.14608 8.036z"/><path d="m59.8545 251.961c1.279-.004.4754 2.524-.196 2.525-17.9825.016-20.4981-23.681 1.2517-24.34.2378-.007.4542 2.554-.1454 2.514-17.1574-1.13-16.7267 19.341-.9103 19.301z"/></g><g stroke="#000"><path d="m241.946 240.223c-1.393.142-.52 3.754.215 3.778 9.264.294 42.385-1.585 44.449-10.403 1.349-5.76.978-6.704-.297-10.068-4.206-11.092-21.343-8.805-25.487-8.932-.26-.008-1.006 3.43-.347 3.417 9.652-.188 17.999.475 21.096 4.371 2.7 3.397 3.435 6.816 1.035 10.099-6 8.21-27.533 6.405-40.664 7.738z"/><path d="m227.743 251.613c-1.401-.003-.521 2.431.214 2.432 19.686.015 22.44-22.806-1.37-23.44-.26-.007-.497 2.459.159 2.421 18.783-1.088 18.311 18.626.997 18.587z"/></g><g fill="#333" stroke="#333" stroke-width="3"><path d="m81.514 208.542c-2.3698 0-7.0925 0-14.168 0-.5417 1.456-1.6081 4.401-3.1992 8.836-.4063 1.015-1.0495 1.54-1.9297 1.574-.2709 0-.5586-.051-.8633-.152-.9479-.305-1.4219-.881-1.4219-1.727 0-.339.0847-.728.2539-1.168 2.7422-7.211 6.8386-18.027 12.2891-32.449.4062-1.016 1.0495-1.524 1.9297-1.524.914-.033 1.5742.474 1.9805 1.524 2.776 7.211 6.9231 18.027 12.4414 32.449.1354.372.2031.694.2031.965 0 .846-.4909 1.439-1.4727 1.777-1.3203.508-2.2513.085-2.7929-1.269-.711-1.964-1.7943-4.909-3.25-8.836zm-12.8477-3.707h11.5273c-.9479-2.641-2.8606-7.922-5.7382-15.844-.9818 2.641-2.9115 7.922-5.7891 15.844z"/><path d="m110.561 216.261c-1.828 2.166-4.621 3.216-8.379 3.148-2.9115 0-5.0951-.897-6.5509-2.691-1.4895-1.829-2.2343-4.401-2.2343-7.719 0-3.352 0-8.379 0-15.082 0-1.761.7786-2.641 2.3359-2.641s2.3359.88 2.3359 2.641v15.082c0 4.164 1.625 6.297 4.8754 6.398 3.554.136 5.924-1.134 7.109-3.808 0-3.927 0-9.801 0-17.621 0-1.761.779-2.641 2.336-2.641s2.336.863 2.336 2.59v22.902c0 1.727-.694 2.59-2.082 2.59s-2.082-.863-2.082-2.59c0-.101 0-.288 0-.558z"/><path d="m128.283 187.112v4.164h3.758c.948 0 1.422.61 1.422 1.828 0 1.219-.508 1.828-1.523 1.828-.61 0-1.828 0-3.657 0 0 2.878.017 8.599.051 17.164 0 1.084.153 1.879.457 2.387.305.508.999.762 2.082.762.711 0 1.575-.169 2.59-.508.305-.101.61-.135.914-.101.305.033.542.186.711.457.102.169.169.44.203.812v.203c0 .305-.067.626-.203.965-.068.203-.203.423-.406.66-.169.237-.389.44-.66.61-1.05.71-2.404 1.066-4.063 1.066-2.099 0-3.673-.643-4.722-1.93-1.084-1.252-1.625-3.047-1.625-5.383 0-3.825 0-9.546 0-17.164-.542 0-1.592 0-3.149 0-1.388 0-2.082-.609-2.082-1.828 0-1.218.694-1.828 2.082-1.828h3.149c0-.677 0-2.065 0-4.164 0-1.726.778-2.59 2.336-2.59 1.557 0 2.335.864 2.335 2.59z"/><path d="m137.678 204.886c0-2.675.542-5.096 1.625-7.262 1.049-2.133 2.522-3.792 4.418-4.977 1.896-1.151 4.046-1.726 6.449-1.726 3.724 0 6.754 1.286 9.09 3.859 2.302 2.607 3.453 6.06 3.453 10.359v.305c0 2.675-.508 5.078-1.523 7.211-1.05 2.133-2.522 3.792-4.418 4.977s-4.08 1.777-6.551 1.777c-3.724 0-6.737-1.303-9.039-3.91-2.336-2.573-3.504-5.992-3.504-10.258 0-.068 0-.186 0-.355zm4.773.558c0 3.047.694 5.501 2.082 7.363 1.422 1.829 3.318 2.743 5.688 2.743 2.404 0 4.299-.931 5.687-2.793 1.389-1.862 2.083-4.486 2.083-7.871 0-3.013-.711-5.451-2.133-7.313s-3.318-2.793-5.688-2.793c-2.302 0-4.164.914-5.586 2.742-1.422 1.862-2.133 4.503-2.133 7.922z"/><path d="m193.487 185.69c-1.795 0-5.4 0-10.817 0v30.469c0 1.828-.677 2.742-2.031 2.742s-2.031-.914-2.031-2.742c0-6.771 0-16.927 0-30.469-1.828 0-5.451 0-10.867 0-1.795 0-2.692-.677-2.692-2.031s.897-2.031 2.692-2.031h25.746c1.828 0 2.742.677 2.742 2.031s-.914 2.031-2.742 2.031z"/><path d="m218.471 208.542c-2.37 0-7.092 0-14.168 0-.542 1.456-1.608 4.401-3.199 8.836-.406 1.015-1.05 1.54-1.93 1.574-.271 0-.558-.051-.863-.152-.948-.305-1.422-.881-1.422-1.727 0-.339.085-.728.254-1.168 2.742-7.211 6.838-18.027 12.289-32.449.406-1.016 1.049-1.524 1.93-1.524.914-.033 1.574.474 1.98 1.524 2.776 7.211 6.923 18.027 12.441 32.449.136.372.204.694.204.965 0 .846-.491 1.439-1.473 1.777-1.32.508-2.251.085-2.793-1.269-.711-1.964-1.794-4.909-3.25-8.836zm-12.848-3.707h11.528c-.948-2.641-2.861-7.922-5.739-15.844-.981 2.641-2.911 7.922-5.789 15.844z"/></g><path d="m80.4925 228.392h125.2445c5.523 0 10 6.721 10 15.011v17.709c0 8.29-4.477 15.011-10 15.011h-125.2445c-5.5228 0-10-6.721-10-15.011v-17.709c0-8.29 4.4772-15.011 10-15.011z" fill="#fffea9" stroke="#000" stroke-width="3"/><path d="m82.388 241.841h120.419c.778 0 1.409.998 1.409 2.229 0 1.231-.631 2.228-1.409 2.228h-120.419c-.7783 0-1.4092-.997-1.4092-2.228 0-1.231.6309-2.229 1.4092-2.229z" fill="#95bb8f" stroke="#000" stroke-width="2"/><path d="m83.0792 257.04h120.4188c.778 0 1.409.998 1.409 2.228 0 1.231-.631 2.229-1.409 2.229h-120.4188c-.7783 0-1.4092-.998-1.4092-2.229 0-1.23.6309-2.228 1.4092-2.228z" fill="#95bb8f" stroke="#000" stroke-width="2"/><path d="m105.01 10.3132c3.369 0 6.1 2.7311 6.1 6.1 0 3.369-2.731 6.1001-6.1 6.1001-3.369 0-6.1004-2.7311-6.1004-6.1001 0-3.3689 2.7314-6.1 6.1004-6.1z" fill="#88d77e" stroke="#2d2d2d" stroke-width="3"/><path d="m186.047 10.0795c3.369 0 6.1 2.7311 6.1 6.1001 0 3.3689-2.731 6.1-6.1 6.1-3.369 0-6.1-2.7311-6.1-6.1 0-1.9062.875-3.6082 2.244-4.7268 1.051-.8584 2.394-1.3733 3.856-1.3733z" fill="#88d77e" stroke="#2d2d2d" stroke-width="3"/><path d="m104.932 23.7039c.074 0 .134.06.134.134v11.6826c0 .074-.06.134-.134.134-.074 0-.134-.06-.134-.134v-11.6826c0-.074.06-.134.134-.134z" fill="#f8f280" stroke="#2d2d2d" stroke-width="3"/><path d="m185.872 22.8991c.074 0 .134.06.134.134v11.6826c0 .074-.06.134-.134.134-.074 0-.134-.06-.134-.134v-11.6826c0-.074.06-.134.134-.134z" fill="#f8f280" stroke="#2d2d2d" stroke-width="3"/></g></svg>