<?xml version="1.0" encoding="UTF-8" standalone="no"?>
<!DOCTYPE svg PUBLIC "-//W3C//DTD SVG 1.1//EN" "http://www.w3.org/Graphics/SVG/1.1/DTD/svg11.dtd">
<svg width="100%" height="100%" viewBox="0 0 3600 3600" version="1.1" xmlns="http://www.w3.org/2000/svg" xmlns:xlink="http://www.w3.org/1999/xlink" xml:space="preserve" xmlns:serif="http://www.serif.com/" style="fill-rule:evenodd;clip-rule:evenodd;stroke-linecap:round;stroke-linejoin:round;stroke-miterlimit:1.5;">
    <g id="Background">
        <rect x="-67.57" y="-14.167" width="4014.93" height="3640.44"/>
    </g>
    <g id="Clock">
        <g transform="matrix(0.855159,0,0,0.855159,174.216,312.133)">
            <path d="M1901.15,687.436C2482,687.436 2953.59,1159.02 2953.59,1739.87C2953.59,2320.73 2482,2792.31 1901.15,2792.31C1320.29,2792.31 848.712,2320.73 848.712,1739.87C848.712,1159.02 1320.29,687.436 1901.15,687.436ZM1901.15,706.688C2471.38,706.688 2934.33,1169.64 2934.33,1739.87C2934.33,2310.1 2471.38,2773.06 1901.15,2773.06C1330.92,2773.06 867.964,2310.1 867.964,1739.87C867.964,1169.64 1330.92,706.688 1901.15,706.688Z" style="fill:white;"/>
        </g>
        <g transform="matrix(1,0,0,1,-4.26537,-39.6454)">
            <rect x="1798.24" y="969.645" width="12.059" height="130.507" style="fill:white;"/>
        </g>
        <g transform="matrix(-1,-1.22465e-16,1.22465e-16,-1,3604.27,3639.65)">
            <rect x="1798.24" y="969.645" width="12.059" height="130.507" style="fill:white;"/>
        </g>
        <g transform="matrix(1.19434e-15,-1,1,1.19434e-15,-39.6454,3604.27)">
            <rect x="1798.24" y="969.645" width="12.059" height="130.507" style="fill:white;"/>
        </g>
        <g transform="matrix(0.866025,-0.5,0.34481,0.597229,-531.883,1369.59)">
            <rect x="1798.24" y="969.645" width="12.059" height="130.507" style="fill:white;stroke:black;stroke-width:1.16px;"/>
        </g>
        <g transform="matrix(0.5,-0.866025,0.597229,0.34481,-434.675,2593.2)">
            <rect x="1798.24" y="969.645" width="12.059" height="130.507" style="fill:white;stroke:black;stroke-width:1.16px;"/>
        </g>
        <g transform="matrix(-0.292455,0.40253,-0.371943,-0.270233,2033.02,859.652)">
            <rect x="1798.24" y="969.645" width="12.059" height="130.507" style="fill:white;stroke:black;stroke-width:2.09px;"/>
        </g>
        <g transform="matrix(-0.332929,0.369755,-0.341659,-0.307631,2130.03,889.16)">
            <rect x="1798.24" y="969.645" width="12.059" height="130.507" style="fill:white;stroke:black;stroke-width:2.09px;"/>
        </g>
        <g transform="matrix(-0.369755,0.332929,-0.307631,-0.341659,2223.43,928.648)">
            <rect x="1798.24" y="969.645" width="12.059" height="130.507" style="fill:white;stroke:black;stroke-width:2.09px;"/>
        </g>
        <g transform="matrix(-0.40253,0.292455,-0.270233,-0.371943,2312.2,978.682)">
            <rect x="1798.24" y="969.645" width="12.059" height="130.507" style="fill:white;stroke:black;stroke-width:2.09px;"/>
        </g>
        <g transform="matrix(-0.454539,0.202374,-0.186996,-0.42,2471.97,1103.14)">
            <rect x="1798.24" y="969.645" width="12.059" height="130.507" style="fill:white;stroke:black;stroke-width:2.09px;"/>
        </g>
        <g transform="matrix(-0.473203,0.153753,-0.14207,-0.437245,2541.24,1177.21)">
            <rect x="1798.24" y="969.645" width="12.059" height="130.507" style="fill:white;stroke:black;stroke-width:2.09px;"/>
        </g>
        <g transform="matrix(-0.494829,0.0520086,-0.0480567,-0.457228,2654.73,1344.95)">
            <rect x="1798.24" y="969.645" width="12.059" height="130.507" style="fill:white;stroke:black;stroke-width:2.09px;"/>
        </g>
        <g transform="matrix(-0.486682,0.103447,-0.0955868,-0.4497,2602.38,1258.1)">
            <rect x="1798.24" y="969.645" width="12.059" height="130.507" style="fill:white;stroke:black;stroke-width:2.09px;"/>
        </g>
        <g transform="matrix(-0.202374,0.454539,-0.42,-0.186996,1832.42,832.754)">
            <rect x="1798.24" y="969.645" width="12.059" height="130.507" style="fill:white;stroke:black;stroke-width:2.09px;"/>
        </g>
        <g transform="matrix(-0.153753,0.473203,-0.437245,-0.14207,1731.03,834.67)">
            <rect x="1798.24" y="969.645" width="12.059" height="130.507" style="fill:white;stroke:black;stroke-width:2.09px;"/>
        </g>
        <g transform="matrix(-0.103447,0.486682,-0.4497,-0.0955868,1630.4,847.173)">
            <rect x="1798.24" y="969.645" width="12.059" height="130.507" style="fill:white;stroke:black;stroke-width:2.09px;"/>
        </g>
        <g transform="matrix(-0.0520086,0.494829,-0.457228,-0.0480567,1531.62,870.127)">
            <rect x="1798.24" y="969.645" width="12.059" height="130.507" style="fill:white;stroke:black;stroke-width:2.09px;"/>
        </g>
        <g transform="matrix(-0.5,-0.866025,0.597229,-0.34481,1368.59,4130.77)">
            <rect x="1798.24" y="969.645" width="12.059" height="130.507" style="fill:white;stroke:black;stroke-width:1.16px;"/>
        </g>
        <g transform="matrix(-0.866025,-0.5,0.34481,-0.597229,2592.2,4033.56)">
            <rect x="1798.24" y="969.645" width="12.059" height="130.507" style="fill:white;stroke:black;stroke-width:1.16px;"/>
        </g>
        <g transform="matrix(0.40253,0.292455,-0.270233,0.371943,858.652,1565.87)">
            <rect x="1798.24" y="969.645" width="12.059" height="130.507" style="fill:white;stroke:black;stroke-width:2.09px;"/>
        </g>
        <g transform="matrix(0.369755,0.332929,-0.307631,0.341659,888.16,1468.85)">
            <rect x="1798.24" y="969.645" width="12.059" height="130.507" style="fill:white;stroke:black;stroke-width:2.09px;"/>
        </g>
        <g transform="matrix(0.332929,0.369755,-0.341659,0.307631,927.648,1375.45)">
            <rect x="1798.24" y="969.645" width="12.059" height="130.507" style="fill:white;stroke:black;stroke-width:2.09px;"/>
        </g>
        <g transform="matrix(0.292455,0.40253,-0.371943,0.270233,977.682,1286.69)">
            <rect x="1798.24" y="969.645" width="12.059" height="130.507" style="fill:white;stroke:black;stroke-width:2.09px;"/>
        </g>
        <g transform="matrix(0.202374,0.454539,-0.42,0.186996,1102.14,1126.91)">
            <rect x="1798.24" y="969.645" width="12.059" height="130.507" style="fill:white;stroke:black;stroke-width:2.09px;"/>
        </g>
        <g transform="matrix(0.153753,0.473203,-0.437245,0.14207,1176.21,1057.65)">
            <rect x="1798.24" y="969.645" width="12.059" height="130.507" style="fill:white;stroke:black;stroke-width:2.09px;"/>
        </g>
        <g transform="matrix(0.0520086,0.494829,-0.457228,0.0480567,1343.95,944.151)">
            <rect x="1798.24" y="969.645" width="12.059" height="130.507" style="fill:white;stroke:black;stroke-width:2.09px;"/>
        </g>
        <g transform="matrix(0.103447,0.486682,-0.4497,0.0955868,1257.1,996.503)">
            <rect x="1798.24" y="969.645" width="12.059" height="130.507" style="fill:white;stroke:black;stroke-width:2.09px;"/>
        </g>
        <g transform="matrix(0.454539,0.202374,-0.186996,0.42,831.754,1766.47)">
            <rect x="1798.24" y="969.645" width="12.059" height="130.507" style="fill:white;stroke:black;stroke-width:2.09px;"/>
        </g>
        <g transform="matrix(0.473203,0.153753,-0.14207,0.437245,833.67,1867.86)">
            <rect x="1798.24" y="969.645" width="12.059" height="130.507" style="fill:white;stroke:black;stroke-width:2.09px;"/>
        </g>
        <g transform="matrix(0.486682,0.103447,-0.0955868,0.4497,846.173,1968.49)">
            <rect x="1798.24" y="969.645" width="12.059" height="130.507" style="fill:white;stroke:black;stroke-width:2.09px;"/>
        </g>
        <g transform="matrix(0.494829,0.0520086,-0.0480567,0.457228,869.127,2067.26)">
            <rect x="1798.24" y="969.645" width="12.059" height="130.507" style="fill:white;stroke:black;stroke-width:2.09px;"/>
        </g>
        <g transform="matrix(-0.866025,0.5,-0.34481,-0.597229,4131.97,2230.29)">
            <rect x="1798.24" y="969.645" width="12.059" height="130.507" style="fill:white;stroke:black;stroke-width:1.16px;"/>
        </g>
        <g transform="matrix(-0.5,0.866025,-0.597229,-0.34481,4034.76,1006.69)">
            <rect x="1798.24" y="969.645" width="12.059" height="130.507" style="fill:white;stroke:black;stroke-width:1.16px;"/>
        </g>
        <g transform="matrix(0.292455,-0.40253,0.371943,0.270233,1567.07,2740.23)">
            <rect x="1798.24" y="969.645" width="12.059" height="130.507" style="fill:white;stroke:black;stroke-width:2.09px;"/>
        </g>
        <g transform="matrix(0.332929,-0.369755,0.341659,0.307631,1470.05,2710.72)">
            <rect x="1798.24" y="969.645" width="12.059" height="130.507" style="fill:white;stroke:black;stroke-width:2.09px;"/>
        </g>
        <g transform="matrix(0.369755,-0.332929,0.307631,0.341659,1376.65,2671.24)">
            <rect x="1798.24" y="969.645" width="12.059" height="130.507" style="fill:white;stroke:black;stroke-width:2.09px;"/>
        </g>
        <g transform="matrix(0.40253,-0.292455,0.270233,0.371943,1287.89,2621.2)">
            <rect x="1798.24" y="969.645" width="12.059" height="130.507" style="fill:white;stroke:black;stroke-width:2.09px;"/>
        </g>
        <g transform="matrix(0.454539,-0.202374,0.186996,0.42,1128.11,2496.74)">
            <rect x="1798.24" y="969.645" width="12.059" height="130.507" style="fill:white;stroke:black;stroke-width:2.09px;"/>
        </g>
        <g transform="matrix(0.473203,-0.153753,0.14207,0.437245,1058.85,2422.68)">
            <rect x="1798.24" y="969.645" width="12.059" height="130.507" style="fill:white;stroke:black;stroke-width:2.09px;"/>
        </g>
        <g transform="matrix(0.494829,-0.0520086,0.0480567,0.457228,945.351,2254.93)">
            <rect x="1798.24" y="969.645" width="12.059" height="130.507" style="fill:white;stroke:black;stroke-width:2.09px;"/>
        </g>
        <g transform="matrix(0.486682,-0.103447,0.0955868,0.4497,997.703,2341.78)">
            <rect x="1798.24" y="969.645" width="12.059" height="130.507" style="fill:white;stroke:black;stroke-width:2.09px;"/>
        </g>
        <g transform="matrix(0.202374,-0.454539,0.42,0.186996,1767.67,2767.13)">
            <rect x="1798.24" y="969.645" width="12.059" height="130.507" style="fill:white;stroke:black;stroke-width:2.09px;"/>
        </g>
        <g transform="matrix(0.153753,-0.473203,0.437245,0.14207,1869.06,2765.21)">
            <rect x="1798.24" y="969.645" width="12.059" height="130.507" style="fill:white;stroke:black;stroke-width:2.09px;"/>
        </g>
        <g transform="matrix(0.103447,-0.486682,0.4497,0.0955868,1969.69,2752.71)">
            <rect x="1798.24" y="969.645" width="12.059" height="130.507" style="fill:white;stroke:black;stroke-width:2.09px;"/>
        </g>
        <g transform="matrix(0.0520086,-0.494829,0.457228,0.0480567,2068.46,2729.76)">
            <rect x="1798.24" y="969.645" width="12.059" height="130.507" style="fill:white;stroke:black;stroke-width:2.09px;"/>
        </g>
        <g transform="matrix(0.5,0.866025,-0.597229,0.34481,2231.49,-530.767)">
            <rect x="1798.24" y="969.645" width="12.059" height="130.507" style="fill:white;stroke:black;stroke-width:1.16px;"/>
        </g>
        <g transform="matrix(0.866025,0.5,-0.34481,0.597229,1007.89,-433.559)">
            <rect x="1798.24" y="969.645" width="12.059" height="130.507" style="fill:white;stroke:black;stroke-width:1.16px;"/>
        </g>
        <g transform="matrix(-0.40253,-0.292455,0.270233,-0.371943,2741.43,2034.13)">
            <rect x="1798.24" y="969.645" width="12.059" height="130.507" style="fill:white;stroke:black;stroke-width:2.09px;"/>
        </g>
        <g transform="matrix(-0.369755,-0.332929,0.307631,-0.341659,2711.92,2131.15)">
            <rect x="1798.24" y="969.645" width="12.059" height="130.507" style="fill:white;stroke:black;stroke-width:2.09px;"/>
        </g>
        <g transform="matrix(-0.332929,-0.369755,0.341659,-0.307631,2672.44,2224.55)">
            <rect x="1798.24" y="969.645" width="12.059" height="130.507" style="fill:white;stroke:black;stroke-width:2.09px;"/>
        </g>
        <g transform="matrix(-0.292455,-0.40253,0.371943,-0.270233,2622.4,2313.31)">
            <rect x="1798.24" y="969.645" width="12.059" height="130.507" style="fill:white;stroke:black;stroke-width:2.09px;"/>
        </g>
        <g transform="matrix(-0.202374,-0.454539,0.42,-0.186996,2497.94,2473.09)">
            <rect x="1798.24" y="969.645" width="12.059" height="130.507" style="fill:white;stroke:black;stroke-width:2.09px;"/>
        </g>
        <g transform="matrix(-0.153753,-0.473203,0.437245,-0.14207,2423.88,2542.35)">
            <rect x="1798.24" y="969.645" width="12.059" height="130.507" style="fill:white;stroke:black;stroke-width:2.09px;"/>
        </g>
        <g transform="matrix(-0.0520086,-0.494829,0.457228,-0.0480567,2256.13,2655.85)">
            <rect x="1798.24" y="969.645" width="12.059" height="130.507" style="fill:white;stroke:black;stroke-width:2.09px;"/>
        </g>
        <g transform="matrix(-0.103447,-0.486682,0.4497,-0.0955868,2342.98,2603.5)">
            <rect x="1798.24" y="969.645" width="12.059" height="130.507" style="fill:white;stroke:black;stroke-width:2.09px;"/>
        </g>
        <g transform="matrix(-0.454539,-0.202374,0.186996,-0.42,2768.33,1833.53)">
            <rect x="1798.24" y="969.645" width="12.059" height="130.507" style="fill:white;stroke:black;stroke-width:2.09px;"/>
        </g>
        <g transform="matrix(-0.473203,-0.153753,0.14207,-0.437245,2766.41,1732.14)">
            <rect x="1798.24" y="969.645" width="12.059" height="130.507" style="fill:white;stroke:black;stroke-width:2.09px;"/>
        </g>
        <g transform="matrix(-0.486682,-0.103447,0.0955868,-0.4497,2753.91,1631.51)">
            <rect x="1798.24" y="969.645" width="12.059" height="130.507" style="fill:white;stroke:black;stroke-width:2.09px;"/>
        </g>
        <g transform="matrix(-0.494829,-0.0520086,0.0480567,-0.457228,2730.96,1532.74)">
            <rect x="1798.24" y="969.645" width="12.059" height="130.507" style="fill:white;stroke:black;stroke-width:2.09px;"/>
        </g>
        <g transform="matrix(6.12323e-17,1,-1,6.12323e-17,3639.65,-4.26537)">
            <rect x="1798.24" y="969.645" width="12.059" height="130.507" style="fill:white;"/>
        </g>
        <g transform="matrix(-1.18301,0.384382,-1.27863,-3.93521,5177.27,4930.23)">
            <path d="M1810.3,971.47C1810.3,970.462 1807.58,969.645 1804.23,969.645L1804.22,969.645C1802.64,969.645 1801.11,969.835 1799.99,970.173C1798.87,970.51 1798.24,970.968 1798.24,971.445C1798.24,985.966 1798.24,1083.81 1798.24,1098.35C1798.24,1098.83 1798.87,1099.29 1799.99,1099.62C1801.12,1099.96 1802.65,1100.15 1804.24,1100.15L1804.24,1100.15C1805.85,1100.15 1807.39,1099.96 1808.52,1099.62C1809.66,1099.28 1810.3,1098.82 1810.3,1098.33C1810.3,1083.75 1810.3,986.072 1810.3,971.47Z" style="fill:white;"/>
        </g>
        <g transform="matrix(-0.681808,-0.303561,2.05696,-4.62,1035.65,6832.46)">
            <path d="M1810.3,970.548C1810.3,970.05 1807.56,969.645 1804.18,969.645L1804.17,969.645C1802.6,969.645 1801.09,969.738 1799.98,969.902C1798.86,970.066 1798.24,970.289 1798.24,970.522C1798.24,981.319 1798.24,1088.44 1798.24,1099.27C1798.24,1099.76 1800.91,1100.15 1804.21,1100.15C1804.21,1100.15 1804.21,1100.15 1804.21,1100.15C1805.83,1100.15 1807.37,1100.06 1808.51,1099.89C1809.65,1099.72 1810.3,1099.49 1810.3,1099.25C1810.3,1088.35 1810.3,981.488 1810.3,970.548Z" style="fill:white;fill-opacity:0.83;"/>
        </g>
        <g transform="matrix(-0.709804,-0.230629,1.56277,-4.8097,1565.35,6884.82)">
            <path d="M1810.3,970.548C1810.3,970.05 1807.56,969.645 1804.18,969.645L1804.17,969.645C1802.6,969.645 1801.09,969.738 1799.98,969.902C1798.86,970.066 1798.24,970.289 1798.24,970.522C1798.24,981.319 1798.24,1088.44 1798.24,1099.27C1798.24,1099.76 1800.91,1100.15 1804.21,1100.15C1804.21,1100.15 1804.21,1100.15 1804.21,1100.15C1805.83,1100.15 1807.37,1100.06 1808.51,1099.89C1809.65,1099.72 1810.3,1099.49 1810.3,1099.25C1810.3,1088.35 1810.3,981.488 1810.3,970.548Z" style="fill:white;fill-opacity:0.58;"/>
        </g>
        <g transform="matrix(-0.730023,-0.155171,1.05145,-4.9467,2097.62,6881.52)">
            <path d="M1810.3,970.548C1810.3,970.05 1807.56,969.645 1804.18,969.645L1804.17,969.645C1802.6,969.645 1801.09,969.738 1799.98,969.902C1798.86,970.066 1798.24,970.289 1798.24,970.522C1798.24,981.319 1798.24,1088.44 1798.24,1099.27C1798.24,1099.76 1800.91,1100.15 1804.21,1100.15C1804.21,1100.15 1804.21,1100.15 1804.21,1100.15C1805.83,1100.15 1807.37,1100.06 1808.51,1099.89C1809.65,1099.72 1810.3,1099.49 1810.3,1099.25C1810.3,1088.35 1810.3,981.488 1810.3,970.548Z" style="fill:white;fill-opacity:0.31;"/>
        </g>
        <g transform="matrix(-0.742244,-0.078013,0.528623,-5.02951,2626.63,6822.6)">
            <path d="M1810.3,970.548C1810.3,970.05 1807.56,969.645 1804.18,969.645L1804.17,969.645C1802.6,969.645 1801.09,969.738 1799.98,969.902C1798.86,970.066 1798.24,970.289 1798.24,970.522C1798.24,981.319 1798.24,1088.44 1798.24,1099.27C1798.24,1099.76 1800.91,1100.15 1804.21,1100.15C1804.21,1100.15 1804.21,1100.15 1804.21,1100.15C1805.83,1100.15 1807.37,1100.06 1808.51,1099.89C1809.65,1099.72 1810.3,1099.49 1810.3,1099.25C1810.3,1088.35 1810.3,981.488 1810.3,970.548Z" style="fill:white;fill-opacity:0.18;"/>
        </g>
        <g transform="matrix(-0.746332,-2.35922e-16,1.33227e-15,-5.05722,3146.58,6708.71)">
            <path d="M1810.3,970.548C1810.3,970.05 1807.56,969.645 1804.18,969.645L1804.17,969.645C1802.6,969.645 1801.09,969.738 1799.98,969.902C1798.86,970.066 1798.24,970.289 1798.24,970.522C1798.24,981.319 1798.24,1088.44 1798.24,1099.27C1798.24,1099.76 1800.91,1100.15 1804.21,1100.15C1804.21,1100.15 1804.21,1100.15 1804.21,1100.15C1805.83,1100.15 1807.37,1100.06 1808.51,1099.89C1809.65,1099.72 1810.3,1099.49 1810.3,1099.25C1810.3,1088.35 1810.3,981.488 1810.3,970.548Z" style="fill:white;fill-opacity:0.05;"/>
        </g>
        <g transform="matrix(-1.49215,0.0390734,-0.0601739,-2.29795,4550.59,3966.7)">
            <path d="M1810.3,973.568C1810.3,971.402 1807.59,969.645 1804.25,969.645C1804.25,969.645 1804.25,969.645 1804.25,969.645C1802.66,969.645 1801.13,970.057 1800,970.79C1798.87,971.522 1798.24,972.516 1798.24,973.552C1798.24,992.767 1798.24,1077.09 1798.24,1096.26C1798.24,1098.41 1800.92,1100.15 1804.22,1100.15C1804.24,1100.15 1804.26,1100.15 1804.27,1100.15C1805.87,1100.15 1807.4,1099.74 1808.53,1099.01C1809.66,1098.27 1810.3,1097.28 1810.3,1096.24C1810.3,1077.03 1810.3,992.807 1810.3,973.568Z" style="fill:white;"/>
        </g>
    </g>
</svg>
